<svg width="75" height="75" viewBox="0 0 75 75" fill="none" xmlns="http://www.w3.org/2000/svg">
<circle cx="37.5" cy="37.5" r="37.5" fill="#131C25"/>
<path d="M32.982 50.8464C32.982 53.6925 30.6745 56 27.8284 56C24.9823 56 22.6748 53.6925 22.6748 50.8464V24.1536C22.6748 21.3075 24.9823 19 27.8284 19C30.6745 19 32.982 21.3075 32.982 24.1536V50.8464Z" fill="white"/>
<path d="M52.3238 50.8464C52.3238 53.6925 50.0163 56 47.1702 56C44.3241 56 42.0166 53.6925 42.0166 50.8464V24.1536C42.0174 21.3075 44.3249 19 47.1702 19C50.0163 19 52.3238 21.3075 52.3238 24.1536V50.8464Z" fill="white"/>
</svg>
